<?xml version="1.0" encoding="utf-8"?>
<!-- Generator: Adobe Illustrator 24.1.1, SVG Export Plug-In . SVG Version: 6.00 Build 0)  -->
<svg version="1.1" id="Calque_1" xmlns="http://www.w3.org/2000/svg" xmlns:xlink="http://www.w3.org/1999/xlink" x="0px" y="0px"
	 viewBox="0 0 30 30" style="enable-background:new 0 0 30 30;" xml:space="preserve">
<style type="text/css">
	.st0{fill:#E6DAC5;}
</style>
<g id="layer1" transform="translate(-539.17946,-568.85777)">
	<path id="path3611" class="st0" d="M548.9,595.3c10.8,0,16.7-8.9,16.7-16.5c0-0.3,0-0.5,0-0.8c1.1-0.8,2.1-1.8,2.9-3
		c-1.1,0.5-2.2,0.8-3.4,0.9c1.2-0.7,2.1-1.9,2.6-3.2c-1.1,0.7-2.4,1.1-3.7,1.4c-1.1-1.1-2.6-1.8-4.3-1.8c-3.2,0-5.9,2.6-5.9,5.8
		c0,0.5,0.1,0.9,0.2,1.3c-4.9-0.2-9.2-2.6-12.1-6.1c-0.5,0.9-0.8,1.9-0.8,2.9c0,2,1,3.8,2.6,4.8c-1,0-1.9-0.3-2.7-0.7c0,0,0,0,0,0.1
		c0,2.8,2,5.2,4.7,5.7c-0.5,0.1-1,0.2-1.5,0.2c-0.4,0-0.7,0-1.1-0.1c0.7,2.3,2.9,4,5.5,4c-2,1.6-4.5,2.5-7.3,2.5
		c-0.5,0-0.9,0-1.4-0.1C542.5,594.4,545.6,595.3,548.9,595.3"/>
</g>
</svg>
